<svg width="24" height="24" viewBox="0 0 24 24" fill="none" xmlns="http://www.w3.org/2000/svg">
<path d="M12.0002 3.27271C9.63009 3.27271 9.33264 3.28307 8.40176 3.32543C7.4727 3.36798 6.83853 3.51507 6.28364 3.73089C5.70966 3.9538 5.22277 4.25198 4.73769 4.73725C4.25225 5.22234 3.95408 5.70925 3.73045 6.28307C3.51409 6.83816 3.36682 7.47252 3.325 8.40125C3.28337 9.33216 3.27246 9.6298 3.27246 12C3.27246 14.3702 3.28301 14.6667 3.32519 15.5976C3.36791 16.5267 3.515 17.1609 3.73063 17.7158C3.95371 18.2898 4.25189 18.7767 4.73714 19.2618C5.22204 19.7472 5.70893 20.0462 6.28255 20.2691C6.83781 20.4849 7.47215 20.632 8.40103 20.6745C9.33191 20.7169 9.62918 20.7272 11.9991 20.7272C14.3694 20.7272 14.6659 20.7169 15.5968 20.6745C16.5259 20.632 17.1608 20.4849 17.716 20.2691C18.2898 20.0462 18.776 19.7472 19.2609 19.2618C19.7463 18.7767 20.0445 18.2898 20.2681 17.716C20.4827 17.1609 20.6299 16.5265 20.6736 15.5978C20.7154 14.6669 20.7263 14.3702 20.7263 12C20.7263 9.6298 20.7154 9.33234 20.6736 8.40143C20.6299 7.47234 20.4827 6.83816 20.2681 6.28325C20.0445 5.70925 19.7463 5.22234 19.2609 4.73725C18.7754 4.2518 18.29 3.95361 17.7155 3.73089C17.1591 3.51507 16.5246 3.36798 15.5955 3.32543C14.6647 3.28307 14.3683 3.27271 11.9975 3.27271H12.0002ZM11.2173 4.84543C11.4497 4.84507 11.7089 4.84543 12.0002 4.84543C14.3303 4.84543 14.6065 4.8538 15.5266 4.89561C16.3775 4.93452 16.8393 5.07671 17.1469 5.19616C17.5542 5.35434 17.8446 5.54343 18.1498 5.84889C18.4553 6.15434 18.6444 6.44525 18.8029 6.85252C18.9223 7.1598 19.0647 7.62161 19.1034 8.47252C19.1453 9.39252 19.1543 9.66889 19.1543 11.998C19.1543 14.3271 19.1453 14.6034 19.1034 15.5234C19.0645 16.3743 18.9223 16.8362 18.8029 17.1434C18.6447 17.5507 18.4553 17.8407 18.1498 18.146C17.8444 18.4514 17.5544 18.6405 17.1469 18.7987C16.8397 18.9187 16.3775 19.0605 15.5266 19.0994C14.6067 19.1412 14.3303 19.1503 12.0002 19.1503C9.6699 19.1503 9.39373 19.1412 8.47376 19.0994C7.62287 19.0602 7.16107 18.918 6.85326 18.7985C6.446 18.6403 6.1551 18.4513 5.84966 18.1458C5.54421 17.8403 5.35513 17.5502 5.19658 17.1427C5.07713 16.8354 4.93477 16.3736 4.89605 15.5227C4.85423 14.6027 4.84587 14.3263 4.84587 11.9958C4.84587 9.66525 4.85423 9.39034 4.89605 8.47034C4.93496 7.61943 5.07713 7.15761 5.19658 6.84998C5.35476 6.4427 5.54421 6.1518 5.84966 5.84634C6.1551 5.54089 6.446 5.3518 6.85326 5.19325C7.16089 5.07325 7.62287 4.93143 8.47376 4.89234C9.27882 4.85598 9.59082 4.84507 11.2173 4.84325V4.84543ZM16.6586 6.29452C16.0804 6.29452 15.6114 6.76307 15.6114 7.34143C15.6114 7.91961 16.0804 8.3887 16.6586 8.3887C17.2368 8.3887 17.7058 7.91961 17.7058 7.34143C17.7058 6.76325 17.2368 6.29416 16.6586 6.29416V6.29452ZM12.0002 7.51816C9.52518 7.51816 7.51851 9.52489 7.51851 12C7.51851 14.4751 9.52518 16.4809 12.0002 16.4809C14.4752 16.4809 16.4812 14.4751 16.4812 12C16.4812 9.52489 14.475 7.51816 12 7.51816H12.0002ZM12.0002 9.09089C13.6067 9.09089 14.9092 10.3932 14.9092 12C14.9092 13.6065 13.6067 14.9091 12.0002 14.9091C10.3935 14.9091 9.09119 13.6065 9.09119 12C9.09119 10.3932 10.3935 9.09089 12.0002 9.09089Z" fill="#9A9EA7"/>
</svg>
